<?xml version="1.0" encoding="UTF-8" standalone="no"?>
<!DOCTYPE svg PUBLIC "-//W3C//DTD SVG 1.1//EN"
 "http://www.w3.org/Graphics/SVG/1.1/DTD/svg11.dtd">
<!-- Generated by graphviz version 2.28.0 (20140111.2315)
 -->
<!-- Title: %3 Pages: 1 -->
<svg width="929pt" height="240pt"
 viewBox="0.00 0.00 929.00 240.00" xmlns="http://www.w3.org/2000/svg" xmlns:xlink="http://www.w3.org/1999/xlink">
<g id="graph0" class="graph" transform="scale(1 1) rotate(0) translate(4 236)">
<title>%3</title>
<polygon fill="white" stroke="none" points="-4,4 -4,-236 925,-236 925,4 -4,4"/>
<!-- repo1 -->
<g id="node1" class="node"><title>repo1</title>
<g id="a_node1"><a xlink:title="ASG Class Report">
<polygon fill="#e41a1c" stroke="#e41a1c" points="54,-25.3008 0,-25.3008 0,-0.6992 54,-0.6992 54,-25.3008"/>
<text text-anchor="middle" x="27" y="-8.8" font-family="Times,serif" font-size="14.00" fill="#377eb8">repo1</text>
</a>
</g>
</g>
<!-- repo2 -->
<g id="node2" class="node"><title>repo2</title>
<g id="a_node2"><a xlink:title="Admin Reports">
<polygon fill="#e41a1c" stroke="#e41a1c" points="126,-25.3008 72,-25.3008 72,-0.6992 126,-0.6992 126,-25.3008"/>
<text text-anchor="middle" x="99" y="-8.8" font-family="Times,serif" font-size="14.00" fill="#377eb8">repo2</text>
</a>
</g>
</g>
<!-- repo3 -->
<g id="node3" class="node"><title>repo3</title>
<g id="a_node3"><a xlink:title="Class by RIT">
<polygon fill="#e41a1c" stroke="#e41a1c" points="198,-25.3008 144,-25.3008 144,-0.6992 198,-0.6992 198,-25.3008"/>
<text text-anchor="middle" x="171" y="-8.8" font-family="Times,serif" font-size="14.00" fill="#377eb8">repo3</text>
</a>
</g>
</g>
<!-- repo4 -->
<g id="node4" class="node"><title>repo4</title>
<g id="a_node4"><a xlink:title="Class Reports">
<polygon fill="#e41a1c" stroke="#e41a1c" points="270,-25.3008 216,-25.3008 216,-0.6992 270,-0.6992 270,-25.3008"/>
<text text-anchor="middle" x="243" y="-8.8" font-family="Times,serif" font-size="14.00" fill="#377eb8">repo4</text>
</a>
</g>
</g>
<!-- repo5 -->
<g id="node5" class="node"><title>repo5</title>
<g id="a_node5"><a xlink:title="Class by Goal">
<polygon fill="#e41a1c" stroke="#e41a1c" points="342,-25.3008 288,-25.3008 288,-0.6992 342,-0.6992 342,-25.3008"/>
<text text-anchor="middle" x="315" y="-8.8" font-family="Times,serif" font-size="14.00" fill="#377eb8">repo5</text>
</a>
</g>
</g>
<!-- repo6 -->
<g id="node6" class="node"><title>repo6</title>
<g id="a_node6"><a xlink:title="Class by Projected Proficiency">
<polygon fill="#e41a1c" stroke="#e41a1c" points="414,-25.3008 360,-25.3008 360,-0.6992 414,-0.6992 414,-25.3008"/>
<text text-anchor="middle" x="387" y="-8.8" font-family="Times,serif" font-size="14.00" fill="#377eb8">repo6</text>
</a>
</g>
</g>
<!-- repo7 -->
<g id="node7" class="node"><title>repo7</title>
<g id="a_node7"><a xlink:title="District Summary">
<polygon fill="#e41a1c" stroke="#e41a1c" points="486,-25.3008 432,-25.3008 432,-0.6992 486,-0.6992 486,-25.3008"/>
<text text-anchor="middle" x="459" y="-8.8" font-family="Times,serif" font-size="14.00" fill="#377eb8">repo7</text>
</a>
</g>
</g>
<!-- repo8 -->
<g id="node8" class="node"><title>repo8</title>
<g id="a_node8"><a xlink:title="Grade Report">
<polygon fill="#e41a1c" stroke="#e41a1c" points="558,-25.3008 504,-25.3008 504,-0.6992 558,-0.6992 558,-25.3008"/>
<text text-anchor="middle" x="531" y="-8.8" font-family="Times,serif" font-size="14.00" fill="#377eb8">repo8</text>
</a>
</g>
</g>
<!-- repo9 -->
<g id="node9" class="node"><title>repo9</title>
<g id="a_node9"><a xlink:title="MPG Reports">
<polygon fill="#e41a1c" stroke="#e41a1c" points="630,-25.3008 576,-25.3008 576,-0.6992 630,-0.6992 630,-25.3008"/>
<text text-anchor="middle" x="603" y="-8.8" font-family="Times,serif" font-size="14.00" fill="#377eb8">repo9</text>
</a>
</g>
</g>
<!-- repo10 -->
<g id="node10" class="node"><title>repo10</title>
<g id="a_node10"><a xlink:title="Projected Proficiency Summary">
<polygon fill="#e41a1c" stroke="#e41a1c" points="702.157,-25.3008 647.843,-25.3008 647.843,-0.6992 702.157,-0.6992 702.157,-25.3008"/>
<text text-anchor="middle" x="675" y="-8.8" font-family="Times,serif" font-size="14.00" fill="#377eb8">repo10</text>
</a>
</g>
</g>
<!-- repo11 -->
<g id="node11" class="node"><title>repo11</title>
<g id="a_node11"><a xlink:title="Student Goal Setting Worksheet">
<polygon fill="#e41a1c" stroke="#e41a1c" points="775.157,-25.3008 720.843,-25.3008 720.843,-0.6992 775.157,-0.6992 775.157,-25.3008"/>
<text text-anchor="middle" x="748" y="-8.8" font-family="Times,serif" font-size="14.00" fill="#377eb8">repo11</text>
</a>
</g>
</g>
<!-- repo12 -->
<g id="node12" class="node"><title>repo12</title>
<g id="a_node12"><a xlink:title="Student Growth Summary">
<polygon fill="#e41a1c" stroke="#e41a1c" points="848.157,-25.3008 793.843,-25.3008 793.843,-0.6992 848.157,-0.6992 848.157,-25.3008"/>
<text text-anchor="middle" x="821" y="-8.8" font-family="Times,serif" font-size="14.00" fill="#377eb8">repo12</text>
</a>
</g>
</g>
<!-- repo13 -->
<g id="node13" class="node"><title>repo13</title>
<g id="a_node13"><a xlink:title="Student Progress Report">
<polygon fill="#e41a1c" stroke="#e41a1c" points="921.157,-25.3008 866.843,-25.3008 866.843,-0.6992 921.157,-0.6992 921.157,-25.3008"/>
<text text-anchor="middle" x="894" y="-8.8" font-family="Times,serif" font-size="14.00" fill="#377eb8">repo13</text>
</a>
</g>
</g>
<!-- ugroups -->
<g id="node14" class="node"><title>ugroups</title>
<g id="a_node14"><a xlink:title="Between Users Latent Classes">
<ellipse fill="#ff7f00" stroke="#ff7f00" cx="459" cy="-152" rx="42.2241" ry="18"/>
<text text-anchor="middle" x="459" y="-147.8" font-family="Times,serif" font-size="14.00" fill="#ffff33">ugroups</text>
</a>
</g>
</g>
<!-- session -->
<g id="node15" class="node"><title>session</title>
<g id="a_node15"><a xlink:title="Within User Latent Classes">
<ellipse fill="#4daf4a" stroke="#4daf4a" cx="459" cy="-80" rx="38.3968" ry="18"/>
<text text-anchor="middle" x="459" y="-75.8" font-family="Times,serif" font-size="14.00" fill="#984ea3">session</text>
</a>
</g>
</g>
<!-- ugroups&#45;&gt;session -->
<g id="edge14" class="edge"><title>ugroups&#45;&gt;session</title>
<g id="a_edge14"><a xlink:title="FALSE">
<path fill="none" stroke="black" stroke-width="1.5" d="M459,-133.697C459,-125.983 459,-116.712 459,-108.112"/>
<polygon fill="black" stroke="black" stroke-width="1.5" points="462.5,-108.104 459,-98.1043 455.5,-108.104 462.5,-108.104"/>
</a>
</g>
</g>
<!-- session&#45;&gt;repo1 -->
<g id="edge1" class="edge"><title>session&#45;&gt;repo1</title>
<g id="a_edge1"><a xlink:title="FALSE">
<path fill="none" stroke="black" stroke-width="1.25" d="M421.176,-76.3266C351.876,-70.9158 199.921,-56.6736 64.1137,-25.9542"/>
<polygon fill="black" stroke="black" stroke-width="1.25" points="64.8947,-22.5426 54.3649,-23.7139 63.3269,-29.3647 64.8947,-22.5426"/>
</a>
</g>
</g>
<!-- session&#45;&gt;repo2 -->
<g id="edge2" class="edge"><title>session&#45;&gt;repo2</title>
<g id="a_edge2"><a xlink:title="FALSE">
<path fill="none" stroke="black" stroke-width="1.25" d="M421.682,-74.861C362.767,-67.902 244.563,-52.2187 136.171,-26.0295"/>
<polygon fill="black" stroke="black" stroke-width="1.25" points="136.931,-22.6123 126.385,-23.6295 135.263,-29.4108 136.931,-22.6123"/>
</a>
</g>
</g>
<!-- session&#45;&gt;repo3 -->
<g id="edge3" class="edge"><title>session&#45;&gt;repo3</title>
<g id="a_edge3"><a xlink:title="FALSE">
<path fill="none" stroke="black" stroke-width="1.25" d="M423.638,-72.8841C376.474,-64.4395 290.267,-48.003 207.801,-26.0151"/>
<polygon fill="black" stroke="black" stroke-width="1.25" points="208.592,-22.6035 198.026,-23.3774 206.768,-29.3618 208.592,-22.6035"/>
</a>
</g>
</g>
<!-- session&#45;&gt;repo4 -->
<g id="edge4" class="edge"><title>session&#45;&gt;repo4</title>
<g id="a_edge4"><a xlink:title="FALSE">
<path fill="none" stroke="black" stroke-width="1.25" d="M427.032,-69.9572C392.866,-60.2111 336.896,-44.0135 279.661,-26.1443"/>
<polygon fill="black" stroke="black" stroke-width="1.25" points="280.683,-22.7968 270.093,-23.1453 278.589,-29.4763 280.683,-22.7968"/>
</a>
</g>
</g>
<!-- session&#45;&gt;repo5 -->
<g id="edge5" class="edge"><title>session&#45;&gt;repo5</title>
<g id="a_edge5"><a xlink:title="FALSE">
<path fill="none" stroke="black" stroke-width="1.25" d="M432.252,-66.9263C408.885,-56.3785 374.823,-41.0035 349.426,-29.5397"/>
<polygon fill="black" stroke="black" stroke-width="1.25" points="350.712,-26.28 340.158,-25.3558 347.832,-32.6601 350.712,-26.28"/>
</a>
</g>
</g>
<!-- session&#45;&gt;repo6 -->
<g id="edge6" class="edge"><title>session&#45;&gt;repo6</title>
<g id="a_edge6"><a xlink:title="FALSE">
<path fill="none" stroke="black" stroke-width="1.25" d="M441.937,-63.5959C431.497,-54.1706 418.086,-42.0635 407.128,-32.171"/>
<polygon fill="black" stroke="black" stroke-width="1.25" points="409.428,-29.5322 399.66,-25.4291 404.737,-34.7281 409.428,-29.5322"/>
</a>
</g>
</g>
<!-- session&#45;&gt;repo7 -->
<g id="edge7" class="edge"><title>session&#45;&gt;repo7</title>
<g id="a_edge7"><a xlink:title="FALSE">
<path fill="none" stroke="black" stroke-width="1.25" d="M459,-61.922C459,-53.882 459,-44.2028 459,-35.6543"/>
<polygon fill="black" stroke="black" stroke-width="1.25" points="462.5,-35.6394 459,-25.6394 455.5,-35.6395 462.5,-35.6394"/>
</a>
</g>
</g>
<!-- session&#45;&gt;repo8 -->
<g id="edge8" class="edge"><title>session&#45;&gt;repo8</title>
<g id="a_edge8"><a xlink:title="FALSE">
<path fill="none" stroke="black" stroke-width="1.25" d="M476.063,-63.5959C486.503,-54.1706 499.914,-42.0635 510.872,-32.171"/>
<polygon fill="black" stroke="black" stroke-width="1.25" points="513.263,-34.7281 518.34,-25.4291 508.572,-29.5322 513.263,-34.7281"/>
</a>
</g>
</g>
<!-- session&#45;&gt;repo9 -->
<g id="edge9" class="edge"><title>session&#45;&gt;repo9</title>
<g id="a_edge9"><a xlink:title="FALSE">
<path fill="none" stroke="black" stroke-width="1.25" d="M485.748,-66.9263C509.115,-56.3785 543.177,-41.0035 568.574,-29.5397"/>
<polygon fill="black" stroke="black" stroke-width="1.25" points="570.168,-32.6601 577.842,-25.3558 567.288,-26.28 570.168,-32.6601"/>
</a>
</g>
</g>
<!-- session&#45;&gt;repo10 -->
<g id="edge10" class="edge"><title>session&#45;&gt;repo10</title>
<g id="a_edge10"><a xlink:title="FALSE">
<path fill="none" stroke="black" stroke-width="1.25" d="M490.968,-69.9572C525.064,-60.2312 580.873,-44.0802 637.655,-26.3626"/>
<polygon fill="black" stroke="black" stroke-width="1.25" points="639.019,-29.603 647.515,-23.2729 636.926,-22.9232 639.019,-29.603"/>
</a>
</g>
</g>
<!-- session&#45;&gt;repo11 -->
<g id="edge11" class="edge"><title>session&#45;&gt;repo11</title>
<g id="a_edge11"><a xlink:title="FALSE">
<path fill="none" stroke="black" stroke-width="1.25" d="M494.338,-72.7954C543.341,-63.9135 634.537,-46.3783 711,-26 711.098,-25.9739 711.196,-25.9477 711.294,-25.9214"/>
<polygon fill="black" stroke="black" stroke-width="1.25" points="711.975,-29.3676 720.618,-23.2394 710.04,-22.6404 711.975,-29.3676"/>
</a>
</g>
</g>
<!-- session&#45;&gt;repo12 -->
<g id="edge12" class="edge"><title>session&#45;&gt;repo12</title>
<g id="a_edge12"><a xlink:title="FALSE">
<path fill="none" stroke="black" stroke-width="1.25" d="M495.918,-74.8352C556.588,-67.5781 680.932,-50.9645 784,-26 784.098,-25.9762 784.197,-25.9522 784.296,-25.9281"/>
<polygon fill="black" stroke="black" stroke-width="1.25" points="784.924,-29.3845 793.654,-23.3814 783.086,-22.6302 784.924,-29.3845"/>
</a>
</g>
</g>
<!-- session&#45;&gt;repo13 -->
<g id="edge13" class="edge"><title>session&#45;&gt;repo13</title>
<g id="a_edge13"><a xlink:title="FALSE">
<path fill="none" stroke="black" stroke-width="1.25" d="M496.714,-76.2687C566.196,-70.7449 719.089,-56.2982 856.788,-25.7036"/>
<polygon fill="black" stroke="black" stroke-width="1.25" points="857.691,-29.0881 866.675,-23.4728 856.15,-22.2598 857.691,-29.0881"/>
</a>
</g>
</g>
<!-- totdays -->
<g id="node16" class="node"><title>totdays</title>
<g id="a_node16"><a xlink:title="Total # Days Reports Accessed">
<polygon fill="#a65628" stroke="#a65628" points="378.331,-231.5 321.669,-231.5 321.669,-206.5 378.331,-206.5 378.331,-231.5"/>
<text text-anchor="middle" x="350" y="-214.8" font-family="Times,serif" font-size="14.00" fill="#f781bf">totdays</text>
</a>
</g>
</g>
<!-- totdays&#45;&gt;ugroups -->
<g id="edge15" class="edge"><title>totdays&#45;&gt;ugroups</title>
<g id="a_edge15"><a xlink:title="FALSE">
<path fill="none" stroke="black" stroke-width="1.5" d="M369.487,-206.379C385.379,-196.902 408.16,-183.317 426.762,-172.224"/>
<polygon fill="black" stroke="black" stroke-width="1.5" points="428.714,-175.136 435.51,-167.008 425.129,-169.123 428.714,-175.136"/>
</a>
</g>
</g>
<!-- eseduc -->
<g id="node17" class="node"><title>eseduc</title>
<g id="a_node17"><a xlink:title="Elementary School Educator">
<polygon fill="#a65628" stroke="#a65628" points="450.066,-231.5 395.934,-231.5 395.934,-206.5 450.066,-206.5 450.066,-231.5"/>
<text text-anchor="middle" x="423" y="-214.8" font-family="Times,serif" font-size="14.00" fill="#f781bf">eseduc</text>
</a>
</g>
</g>
<!-- eseduc&#45;&gt;ugroups -->
<g id="edge16" class="edge"><title>eseduc&#45;&gt;ugroups</title>
<g id="a_edge16"><a xlink:title="FALSE">
<path fill="none" stroke="black" stroke-width="1.5" d="M429.436,-206.379C433.727,-198.631 439.54,-188.137 444.875,-178.504"/>
<polygon fill="black" stroke="black" stroke-width="1.5" points="447.995,-180.093 449.779,-169.649 441.872,-176.702 447.995,-180.093"/>
</a>
</g>
</g>
<!-- hseduc -->
<g id="node18" class="node"><title>hseduc</title>
<g id="a_node18"><a xlink:title="High School Educator">
<polygon fill="#a65628" stroke="#a65628" points="522.156,-231.5 467.844,-231.5 467.844,-206.5 522.156,-206.5 522.156,-231.5"/>
<text text-anchor="middle" x="495" y="-214.8" font-family="Times,serif" font-size="14.00" fill="#f781bf">hseduc</text>
</a>
</g>
</g>
<!-- hseduc&#45;&gt;ugroups -->
<g id="edge17" class="edge"><title>hseduc&#45;&gt;ugroups</title>
<g id="a_edge17"><a xlink:title="FALSE">
<path fill="none" stroke="black" stroke-width="1.5" d="M488.564,-206.379C484.273,-198.631 478.46,-188.137 473.125,-178.504"/>
<polygon fill="black" stroke="black" stroke-width="1.5" points="476.128,-176.702 468.221,-169.649 470.005,-180.093 476.128,-176.702"/>
</a>
</g>
</g>
<!-- mseduc -->
<g id="node19" class="node"><title>mseduc</title>
<g id="a_node19"><a xlink:title="Middle School Educator">
<polygon fill="#a65628" stroke="#a65628" points="599.075,-231.5 540.925,-231.5 540.925,-206.5 599.075,-206.5 599.075,-231.5"/>
<text text-anchor="middle" x="570" y="-214.8" font-family="Times,serif" font-size="14.00" fill="#f781bf">mseduc</text>
</a>
</g>
</g>
<!-- mseduc&#45;&gt;ugroups -->
<g id="edge18" class="edge"><title>mseduc&#45;&gt;ugroups</title>
<g id="a_edge18"><a xlink:title="FALSE">
<path fill="none" stroke="black" stroke-width="1.5" d="M550.155,-206.379C533.898,-196.859 510.562,-183.194 491.571,-172.073"/>
<polygon fill="black" stroke="black" stroke-width="1.5" points="493.319,-169.041 482.921,-167.008 489.782,-175.081 493.319,-169.041"/>
</a>
</g>
</g>
</g>
</svg>

